<?xml version="1.0" encoding="UTF-8" standalone="no"?>
<!-- Created with Inkscape (http://www.inkscape.org/) -->

<svg
   xmlns:dc="http://purl.org/dc/elements/1.1/"
   xmlns:cc="http://creativecommons.org/ns#"
   xmlns:rdf="http://www.w3.org/1999/02/22-rdf-syntax-ns#"
   xmlns:svg="http://www.w3.org/2000/svg"
   xmlns="http://www.w3.org/2000/svg"
   xmlns:sodipodi="http://sodipodi.sourceforge.net/DTD/sodipodi-0.dtd"
   xmlns:inkscape="http://www.inkscape.org/namespaces/inkscape"
   width="420mm"
   height="297mm"
   viewBox="0 0 420 297"
   version="1.1"
   id="SVGRoot"
   inkscape:version="0.92.2 (5c3e80d, 2017-08-06)"
   sodipodi:docname="valmis.svg">
  <sodipodi:namedview
     id="base"
     pagecolor="#ffffff"
     bordercolor="#666666"
     borderopacity="1.0"
     inkscape:pageopacity="0.0"
     inkscape:pageshadow="2"
     inkscape:zoom="0.7"
     inkscape:cx="885.5465"
     inkscape:cy="564.34758"
     inkscape:document-units="mm"
     inkscape:current-layer="layer1"
     showgrid="false"
     inkscape:window-width="1920"
     inkscape:window-height="1017"
     inkscape:window-x="-8"
     inkscape:window-y="169"
     inkscape:window-maximized="1"
     showguides="true"
     inkscape:guide-bbox="true">
    <sodipodi:guide
       position="-17.29241,124.63765"
       orientation="1,0"
       id="guide4783"
       inkscape:locked="false" />
  </sodipodi:namedview>
  <defs
     id="defs3771" />
  <metadata
     id="metadata3774">
    <rdf:RDF>
      <cc:Work
         rdf:about="">
        <dc:format>image/svg+xml</dc:format>
        <dc:type
           rdf:resource="http://purl.org/dc/dcmitype/StillImage" />
        <dc:title></dc:title>
      </cc:Work>
    </rdf:RDF>
  </metadata>
  <g
     id="layer1"
     inkscape:groupmode="layer"
     inkscape:label="Layer 1">
    <path
       style="fill:#000000;fill-opacity:1;stroke:#000000;stroke-width:0.26458332px;stroke-linecap:butt;stroke-linejoin:miter;stroke-opacity:1"
       d="M 23.073344,14.815443 H 72.285845 V 64.027947 H 23.073344 Z"
       id="path4702"
       inkscape:connector-curvature="0" />
    <ellipse
       style="fill:#ffffff;fill-opacity:1;stroke:none;stroke-width:0.26458332"
       id="path4706"
       cx="47.736446"
       cy="39.4795"
       rx="22.143974"
       ry="22.276651" />
    <path
       style="fill:#000000;fill-opacity:1;stroke:#000000;stroke-width:0.26458332px;stroke-linecap:butt;stroke-linejoin:miter;stroke-opacity:1"
       d="m 52.994915,61.000259 c -0.29027,5.004015 3.14984,-21.499582 -28.078887,-20.387942 v 0 0 l 0.008,-2.027904 C 43.635875,39.69839 53.787655,33.035451 51.137445,17.059905 l 2.91896,0.142946 0.80181,45.569454"
       id="path4714"
       inkscape:connector-curvature="0"
       sodipodi:nodetypes="cccccccc" />
    <path
       style="fill:none;stroke:none;stroke-width:0.26458332px;stroke-linecap:butt;stroke-linejoin:miter;stroke-opacity:1"
       d="m 306.85143,76.950373 c -0.61609,1.02172 -0.21119,-56.23115 19.01009,-62.70622 9.92903,0.43293 12.86194,11.87599 16.53646,21.45014 4.87075,-16.82269 11.56664,-20.93014 15.30804,-21.35565 17.41963,1.59099 20.4815,46.93673 20.42961,62.98974 l -8.77948,-0.51028 c -0.35847,-46.38129 -7.66703,-58.56709 -11.65013,-58.13273 -10.20375,4.43391 -9.99373,42.07169 -11.05581,53.76711 h -8.64718 c -0.53165,-20.25291 -2.65158,-54.17489 -12.04701,-53.76711 -7.67258,4.17923 -10.542,33.79625 -10.58333,58.49182 z"
       id="path4745"
       inkscape:connector-curvature="0"
       sodipodi:nodetypes="cccccccccccc" />
    <path
       style="fill:#ffcc00;fill-opacity:1;stroke:none;stroke-width:0.37797621;stroke-opacity:1"
       d="m 310.25532,76.713654 c -1.55891,-0.07279 -2.97662,-0.274584 -3.15047,-0.448434 -0.44817,-0.44817 0.3921,-14.567101 1.29494,-21.7586 2.50524,-19.955269 7.55406,-33.355383 14.4238,-38.282345 2.48337,-1.781064 4.17365,-1.944468 6.95429,-0.672286 4.3055,1.969831 7.26296,6.372763 10.74173,15.991793 0.92084,2.546186 1.7593,4.62856 1.86324,4.627504 0.10395,-0.0011 0.67112,-1.488988 1.2604,-3.306509 2.95119,-9.102515 7.49394,-15.743375 12.08026,-17.659662 1.96542,-0.821203 2.86971,-0.724818 5.49155,0.585335 9.2061,4.600343 15.08029,24.386567 16.53333,55.689807 l 0.26153,5.634347 -2.59999,-0.245505 c -1.42999,-0.135024 -3.29635,-0.246708 -4.14745,-0.248187 l -1.54746,-0.0027 -0.25853,-8.41515 c -0.80872,-26.322573 -4.32398,-44.595832 -9.40077,-48.867665 -1.54665,-1.301422 -2.64101,-1.171856 -4.42342,0.523711 -3.56005,3.386592 -6.14377,12.457834 -7.55386,26.521007 -0.43791,4.367374 -1.533,21.546839 -1.53598,24.095982 l -0.002,1.6064 h -4.10194 -4.10193 l -0.25719,-6.142115 c -1.24909,-29.833639 -5.09756,-46.258292 -11.10263,-47.384848 -1.09685,-0.205772 -1.45939,-0.06662 -2.52999,0.971045 -2.61834,2.537801 -5.10732,9.67999 -6.63749,19.046504 -1.51075,9.247593 -2.6407,23.499125 -2.6407,33.305819 v 5.117287 l -1.03944,-0.0751 c -0.57169,-0.0413 -2.3149,-0.134655 -3.87381,-0.207444 z"
       id="path4749"
       inkscape:connector-curvature="0" />
    <path
       style="fill:#e20025;fill-opacity:1;stroke:none;stroke-width:0.26458332px;stroke-linecap:butt;stroke-linejoin:miter;stroke-opacity:1"
       d="m 42.900299,226.88541 -0.0945,-46.68006 h 52.72767 l 0.0945,46.96354 z"
       id="path4764"
       inkscape:connector-curvature="0" />
    <path
       style="fill:#ffffff;fill-opacity:1;stroke:none;stroke-width:0.26458332px;stroke-linecap:butt;stroke-linejoin:miter;stroke-opacity:1"
       d="m 42.900299,226.88541 19.65476,-46.68006 h 13.32367 l 19.84375,46.68006 h -13.89062 l -12.56772,-29.48215 -8.31548,19.93825 h 8.78795 l 3.77977,9.4494 z"
       id="path4766"
       inkscape:connector-curvature="0"
       sodipodi:nodetypes="cccccccccc" />
    <circle
       style="fill:#a50034;fill-opacity:1;stroke:none;stroke-width:0.26338604;stroke-opacity:1"
       id="path4787"
       cx="287.52469"
       cy="207.87404"
       r="29.266613" />
    <path
       style="fill:#ffffff;fill-opacity:1;stroke:none;stroke-width:0.26458332px;stroke-linecap:butt;stroke-linejoin:miter;stroke-opacity:1"
       d="m 289.70358,183.25693 c -23.73726,-0.10541 -25.42087,22.52134 -25.60524,24.14729 2.33816,24.39172 23.49653,24.86912 24.94643,24.37947 21.60207,-2.11334 23.9488,-19.03415 23.80989,-25.37571 l -17.33021,-0.1396 v 2.38024 l 14.94896,0.1406 c -0.69222,16.48095 -16.8161,21.5132 -21.61763,20.63212 -18.19818,0.0286 -22.39814,-16.42431 -22.2061,-21.82813 0.32477,-12.57628 9.61764,-21.93591 23.0539,-22.02578 z"
       id="path4785"
       inkscape:connector-curvature="0"
       sodipodi:nodetypes="ccccccccccc" />
    <path
       style="fill:#ffffff;fill-opacity:1;stroke:none;stroke-width:0.26458332px;stroke-linecap:butt;stroke-linejoin:miter;stroke-opacity:1"
       d="m 287.63724,193.20159 -2.24896,0.1627 -0.1374,25.5323 h 8.20717 l 3e-5,-2.38124 h -5.82084 z"
       id="path4798"
       inkscape:connector-curvature="0" />
    <circle
       style="fill:#ffffff;fill-opacity:1;stroke:none;stroke-width:0.26458332;stroke-opacity:1"
       id="path4800"
       cx="278.80502"
       cy="197.48392"
       r="3.7083645" />
  </g>
</svg>
